<svg width="24" height="24" viewBox="0 0 24 24" fill="none" xmlns="http://www.w3.org/2000/svg">
<path d="M10.4801 19.0008C10.2178 18.9997 9.96637 18.8955 9.7801 18.7108L5.1901 14.1208C4.6283 13.5583 4.31274 12.7958 4.31274 12.0008C4.31274 11.2058 4.6283 10.4433 5.1901 9.88079L9.7801 5.29079C9.96747 5.10454 10.2209 5 10.4851 5C10.7493 5 11.0027 5.10454 11.1901 5.29079C11.2838 5.38376 11.3582 5.49436 11.409 5.61622C11.4598 5.73808 11.4859 5.86878 11.4859 6.00079C11.4859 6.1328 11.4598 6.26351 11.409 6.38537C11.3582 6.50723 11.2838 6.61783 11.1901 6.71079L6.6001 11.2908C6.50638 11.3838 6.43198 11.4944 6.38121 11.6162C6.33044 11.7381 6.30431 11.8688 6.30431 12.0008C6.30431 12.1328 6.33044 12.2635 6.38121 12.3854C6.43198 12.5072 6.50638 12.6178 6.6001 12.7108L11.1901 17.2908C11.2838 17.3838 11.3582 17.4944 11.409 17.6162C11.4598 17.7381 11.4859 17.8688 11.4859 18.0008C11.4859 18.1328 11.4598 18.2635 11.409 18.3854C11.3582 18.5072 11.2838 18.6178 11.1901 18.7108C11.0967 18.8035 10.9858 18.8768 10.864 18.9266C10.7422 18.9763 10.6117 19.0016 10.4801 19.0008Z" fill="#8E2FAD"/>
<path d="M17.4799 19.0008C17.2176 18.9997 16.9662 18.8955 16.7799 18.7108L10.7799 12.7108C10.6862 12.6178 10.6118 12.5072 10.561 12.3854C10.5103 12.2635 10.4841 12.1328 10.4841 12.0008C10.4841 11.8688 10.5103 11.7381 10.561 11.6162C10.6118 11.4944 10.6862 11.3838 10.7799 11.2908L16.7799 5.29079C16.9673 5.10454 17.2207 5 17.4849 5C17.7491 5 18.0026 5.10454 18.1899 5.29079C18.2836 5.38376 18.358 5.49436 18.4088 5.61622C18.4596 5.73808 18.4857 5.86878 18.4857 6.00079C18.4857 6.1328 18.4596 6.26351 18.4088 6.38537C18.358 6.50723 18.2836 6.61783 18.1899 6.71079L12.8999 12.0008L18.1899 17.2908C18.2836 17.3838 18.358 17.4944 18.4088 17.6162C18.4596 17.7381 18.4857 17.8688 18.4857 18.0008C18.4857 18.1328 18.4596 18.2635 18.4088 18.3854C18.358 18.5072 18.2836 18.6178 18.1899 18.7108C18.0965 18.8035 17.9857 18.8768 17.8638 18.9266C17.742 18.9763 17.6115 19.0016 17.4799 19.0008Z" fill="#8E2FAD"/>
</svg>
